<svg width="48" height="47" viewBox="0 0 48 47" fill="none" xmlns="http://www.w3.org/2000/svg">
<path fill-rule="evenodd" clip-rule="evenodd" d="M30.7938 0.847632C36.7345 16.8897 27.3438 31.3841 14.3231 40.6228C14.0998 40.7819 14.0464 41.0927 14.2055 41.316C14.3646 41.5393 14.6753 41.5927 14.8987 41.4336C28.2845 31.9369 37.8331 16.9932 31.7257 0.501804C31.6311 0.244694 31.345 0.113536 31.0868 0.208764C30.8297 0.30339 30.6986 0.589421 30.7938 0.847632Z" fill="black"/>
<path fill-rule="evenodd" clip-rule="evenodd" d="M14.8554 40.855C15.2272 40.0645 15.7048 39.0776 15.7557 38.964C17.1359 35.8861 17.9646 32.7591 18.365 29.4027C18.3979 29.1303 18.2025 28.8825 17.9301 28.8496C17.6577 28.8168 17.4099 29.0122 17.3771 29.2845C16.9898 32.5394 16.1869 35.5723 14.8478 38.5577C14.7698 38.7318 13.6949 40.9497 13.5112 41.4145C13.435 41.6048 13.451 41.7361 13.4577 41.7668C13.4872 41.9308 13.5743 42.0248 13.655 42.0836C13.7467 42.1494 13.9244 42.221 14.1675 42.1741C14.4217 42.1239 14.9209 41.8914 15.0517 41.8429C17.0266 41.1163 19.1674 40.1334 21.3288 39.628C23.39 39.146 25.4725 39.0983 27.4323 40.2112C27.6708 40.3469 27.9749 40.2623 28.1106 40.0239C28.2463 39.7854 28.1618 39.4813 27.9233 39.3456C25.7319 38.1019 23.4063 38.1207 21.1029 38.6592C18.9543 39.1618 16.825 40.1214 14.8554 40.855Z" fill="black"/>
</svg>
