<svg width="36" height="34" viewBox="0 0 36 34" fill="none" xmlns="http://www.w3.org/2000/svg">
<path fill-rule="evenodd" clip-rule="evenodd" d="M34.8694 0.425729C32.3964 17.3527 17.2084 25.5747 1.35296 27.4442C1.08069 27.4768 0.884932 27.724 0.917554 27.9962C0.950176 28.2685 1.19734 28.4642 1.4696 28.4316C17.7692 26.5107 33.3111 17.97 35.8531 0.56875C35.8932 0.297738 35.705 0.0455466 35.4327 0.00539658C35.1617 -0.0347534 34.9096 0.153462 34.8694 0.425729Z" fill="black"/>
<path fill-rule="evenodd" clip-rule="evenodd" d="M1.70892 27.9031C2.41406 27.3874 3.30614 26.75 3.40526 26.6747C6.09155 24.6346 8.31737 22.2871 10.2772 19.533C10.4365 19.3097 10.3838 18.9985 10.1605 18.8392C9.93715 18.6799 9.62601 18.7326 9.46667 18.9559C7.56707 21.6271 5.40902 23.9044 2.80304 25.883C2.65122 25.9985 0.644945 27.43 0.26101 27.75C0.10292 27.8805 0.0540212 28.0034 0.0452384 28.0336C-0.00745844 28.1916 0.0238989 28.3159 0.0665583 28.4062C0.115491 28.5078 0.237164 28.6559 0.473045 28.7312C0.720219 28.809 1.2698 28.8441 1.40781 28.8642C3.48934 29.1728 5.83938 29.3359 7.97862 29.9281C10.0187 30.4928 11.8694 31.4488 13.0563 33.3647C13.2006 33.5981 13.508 33.6696 13.7414 33.5253C13.9747 33.381 14.0463 33.0736 13.902 32.8403C12.5745 30.6985 10.5243 29.6007 8.24457 28.9695C6.11788 28.3811 3.7892 28.2029 1.70892 27.9031Z" fill="black"/>
</svg>
