<svg width="58" height="58" viewBox="0 0 58 58" fill="none" xmlns="http://www.w3.org/2000/svg">
<circle cx="29" cy="29" r="29" fill="#FAF9FF"/>
<path d="M38.143 22.3702C38.4025 22.5946 38.453 22.8413 38.2944 23.1106L26.6151 42.5793C26.4276 42.8598 26.1248 43 25.7067 43C25.649 43 25.5481 42.9888 25.4039 42.9663C25.1587 42.9103 24.9713 42.8037 24.8415 42.6466C24.7262 42.4896 24.6973 42.3213 24.755 42.1418L29.0158 28.5457L20.2347 30.2452C20.177 30.2564 20.0905 30.262 19.9751 30.262C19.7156 30.262 19.4921 30.2003 19.3047 30.0769C19.0451 29.9087 18.9514 29.6899 19.0235 29.4207L23.3708 15.5385C23.4285 15.3814 23.5438 15.2524 23.7169 15.1514C23.8899 15.0505 24.0917 15 24.3224 15H31.4165C31.6905 15 31.9212 15.0729 32.1087 15.2188C32.2961 15.3534 32.3898 15.516 32.3898 15.7067C32.3898 15.7965 32.3538 15.8974 32.2817 16.0096L28.5832 23.8005L37.1481 22.1514C37.2634 22.129 37.3499 22.1178 37.4076 22.1178C37.6816 22.1178 37.9267 22.2019 38.143 22.3702Z" fill="#6759FF"/>
</svg>
