<svg width="16" height="16" viewBox="0 0 16 16" fill="none" xmlns="http://www.w3.org/2000/svg">
<path d="M1 15H12.8409" stroke="#6759FF" stroke-linecap="round" stroke-linejoin="round"/>
<path d="M7.45867 11.2324L4.22934 11.8137L4.76756 8.54134L12.012 1.31841C12.1121 1.21752 12.2311 1.13744 12.3623 1.08279C12.4935 1.02814 12.6342 1 12.7763 1C12.9184 1 13.0591 1.02814 13.1903 1.08279C13.3214 1.13744 13.4405 1.21752 13.5406 1.31841L14.6816 2.45944C14.7825 2.55951 14.8626 2.67856 14.9172 2.80974C14.9719 2.94091 15 3.08161 15 3.22371C15 3.36582 14.9719 3.50651 14.9172 3.63769C14.8626 3.76886 14.7825 3.88792 14.6816 3.98799L7.45867 11.2324Z" stroke="#6759FF" stroke-linecap="round" stroke-linejoin="round"/>
</svg>
