<svg width="140" height="140" viewBox="0 0 140 140" fill="none" xmlns="http://www.w3.org/2000/svg">
<path d="M33.1002 45.483C33.1002 42.8366 35.2291 40.6912 37.8553 40.6912H135.245C137.871 40.6912 140 42.8366 140 45.483V79.1491C140 81.7956 137.871 83.9409 135.245 83.9409H37.8553C35.2291 83.9409 33.1002 81.7956 33.1002 79.1491V45.483Z" fill="#6759FF"/>
<path d="M25.1468 75.9528C25.8256 73.3963 28.4317 71.881 30.9677 72.5683L125.041 98.0639C127.577 98.7513 129.083 101.381 128.404 103.937L119.772 136.449C119.094 139.006 116.488 140.521 113.952 139.834L19.8782 114.338C17.3421 113.651 15.8365 111.021 16.5152 108.465L25.1468 75.9528Z" fill="#14CDB8"/>
<path d="M72.9192 83.9395H37.8553C35.2291 83.9395 33.1002 81.7941 33.1002 79.1477V73.1478L72.9192 83.9395Z" fill="#3D93DB"/>
<path d="M0.0732299 22.7334C-0.383388 20.1273 1.34281 17.6407 3.9288 17.1795L99.8399 0.0741266C102.426 -0.387076 104.892 1.35173 105.349 3.95785L111.157 37.1064C111.614 39.7125 109.887 42.1991 107.301 42.6603L11.3903 59.7657C8.8043 60.2269 6.33778 58.4881 5.88116 55.8819L0.0732299 22.7334Z" fill="#FB4378"/>
<path d="M110.373 40.6912C109.675 41.6965 108.597 42.4336 107.304 42.6642L33.1002 55.8981V45.483C33.1002 42.8366 35.2291 40.6912 37.8553 40.6912H110.373Z" fill="#B14EBB"/>
</svg>
