<svg width="38" height="47" viewBox="0 0 38 47" fill="none" xmlns="http://www.w3.org/2000/svg">
<path d="M37.7526 39.3945C36.6306 38.9766 35.4615 38.7018 34.2722 38.5763C33.0721 38.5763 31.7819 38.3642 30.5818 38.3642C28.1239 38.3928 25.6736 38.6464 23.261 39.1218C18.4173 40.0614 13.6601 41.4096 9.03945 43.1521C7.80932 43.6067 6.54918 44.0916 5.31905 44.4855C4.68898 44.7279 4.05891 44.9704 3.42884 45.1522C3.15609 45.2159 2.89351 45.3179 2.64876 45.4552L6.45917 38.1521C6.5056 38.0434 6.56614 37.9415 6.63919 37.849C6.74373 37.7306 6.86506 37.6285 6.99923 37.546C9.03945 36.1217 11.2897 34.8793 13.3599 33.3338C16.0658 31.4394 18.5078 29.187 20.6207 26.6368C22.5547 24.2447 24.0946 21.5536 25.1812 18.6669C25.1812 18.6669 25.1812 18.6669 25.1812 18.4548C25.1812 18.2427 25.1812 18.4548 25.1812 18.4548C25.6312 17.2124 26.1113 15.8184 26.5613 14.3032L20.5607 14.6366C20.5607 14.6366 27.0414 12.3032 27.6715 10.0001C27.6715 10.0001 27.6715 9.66681 27.6715 9.5456C27.9715 8.30315 28.2415 6.90919 28.6016 5.72736C29.0514 4.02057 29.7816 2.40211 30.7618 0.939408C31.0318 0.545463 30.5818 0 30.0417 0C26.9227 0.191827 23.8231 0.627481 20.7707 1.30305C18.8172 1.99075 16.9039 2.79003 15.0401 3.69702C10.8014 5.68152 7.17096 8.7836 4.53091 12.6766C1.89086 16.5697 0.338914 21.1097 0.0384756 25.8186C-0.141076 28.7499 0.309269 31.6857 1.35862 34.4247C1.35862 34.6672 1.65865 35.0611 2.22871 34.4247C3.34456 29.5273 5.18547 24.8279 7.6893 20.4852C10.8081 15.0704 15.1328 10.4637 20.3207 7.03041C21.3108 6.39403 22.3009 5.84857 23.321 5.2728C23.321 5.2728 23.321 5.45463 23.321 5.51523C20.4706 7.28738 17.9266 9.51896 15.7902 12.1214C12.2586 16.4664 9.34983 21.2915 7.14924 26.4549C4.3705 32.6323 2.5975 39.2222 1.89868 45.9704C1.88211 46.0401 1.88211 46.1128 1.89868 46.1825C1.89868 46.1825 1.89868 46.1825 1.89868 46.3643C2.91809 46.727 4.02961 46.727 5.04902 46.3643C6.16844 46.0753 7.27039 45.7211 8.34937 45.3037C10.6596 44.4855 12.9699 43.7279 15.3101 42.9703C19.8774 41.4862 24.5993 40.5405 29.3817 40.1521H33.4321C34.8422 40.1521 36.2224 40.3642 37.5425 40.3036C37.9326 40.0915 38.2326 39.3945 37.7526 39.3945Z" fill="#6759FF"/>
</svg>
