<svg width="20" height="20" viewBox="0 0 20 20" fill="none" xmlns="http://www.w3.org/2000/svg">
<path d="M10.0001 10V7.75L16.7501 1L19.0001 3.25L12.2501 10H10.0001Z" stroke="#6759FF" stroke-linecap="round" stroke-linejoin="round"/>
<path d="M6.4 10H3.25C2.65326 10 2.08097 10.2371 1.65901 10.659C1.23705 11.081 1 11.6533 1 12.25C1 12.8467 1.23705 13.419 1.65901 13.841C2.08097 14.2629 2.65326 14.5 3.25 14.5H16.75C17.3467 14.5 17.919 14.7371 18.341 15.159C18.7629 15.581 19 16.1533 19 16.75C19 17.3467 18.7629 17.919 18.341 18.341C17.919 18.7629 17.3467 19 16.75 19H7.3" stroke="#6759FF" stroke-linecap="round" stroke-linejoin="round"/>
</svg>
