<svg width="16" height="16" viewBox="0 0 16 16" fill="none" xmlns="http://www.w3.org/2000/svg">
<path fill-rule="evenodd" clip-rule="evenodd" d="M12.16 11.04L15.76 14.64C16.08 14.96 16.08 15.44 15.76 15.76C15.6 15.92 15.36 16 15.2 16C15.04 16 14.8 15.92 14.64 15.76L11.04 12.16C9.84 13.04 8.4 13.6 6.8 13.6C3.04 13.6 0 10.56 0 6.8C0 3.04 3.04 0 6.8 0C10.56 0 13.6 3.04 13.6 6.8C13.6 8.4 13.04 9.92 12.16 11.04ZM6.80003 1.59994C3.92003 1.59994 1.60003 3.91994 1.60003 6.79994C1.60003 9.67994 3.92003 11.9999 6.80003 11.9999C8.24003 11.9999 9.52003 11.4399 10.48 10.4799C11.44 9.51994 12 8.23994 12 6.79994C12 3.91994 9.68003 1.59994 6.80003 1.59994Z" fill="#C2C2C2"/>
</svg>
