<svg width="49" height="30" viewBox="0 0 49 30" fill="none" xmlns="http://www.w3.org/2000/svg">
<path fill-rule="evenodd" clip-rule="evenodd" d="M42.7991 29.9273C44.7243 29.0597 46.6364 28.2184 48.5354 27.2949C48.9446 27.0977 49.1149 26.6081 48.9184 26.2006C48.722 25.7898 48.2309 25.6189 47.8249 25.8161C45.9357 26.7329 44.04 27.5677 42.1279 28.4287C41.7154 28.616 41.5319 29.1024 41.7153 29.5132C41.9019 29.9273 42.3865 30.1146 42.7991 29.9273Z" fill="#6759FF"/>
<path fill-rule="evenodd" clip-rule="evenodd" d="M28.6548 19.6641C31.451 13.5877 33.9394 7.37319 36.6045 1.2409C36.7846 0.82354 36.5947 0.340437 36.1822 0.159689C35.7664 -0.0210591 35.2851 0.166275 35.1018 0.583637C32.4432 6.70606 29.9614 12.9106 27.1685 18.9739C26.9786 19.388 27.1586 19.8744 27.5679 20.065C27.9804 20.2556 28.4649 20.0749 28.6548 19.6641Z" fill="#6759FF"/>
<path fill-rule="evenodd" clip-rule="evenodd" d="M4.66511 18.0866C3.77127 12.4998 2.72027 6.92952 1.88864 1.3329C1.81988 0.885963 1.40412 0.577097 0.958835 0.642822C0.510276 0.708549 0.202551 1.12915 0.268034 1.57609C1.10294 7.17927 2.15394 12.7562 3.05106 18.3495C3.12309 18.7964 3.54214 19.1021 3.98742 19.0298C4.43598 18.9575 4.73714 18.5368 4.66511 18.0866Z" fill="#6759FF"/>
</svg>
